# xmcd
#
# Track frame offsets: 
#        150
#        9584
#        32759
#        59576
#        87274
#        108192
#        138343
#        162624
#        187401
#        212999
#        233680
#        258598
#        281459
#        304341
#        327199
#
# Disc length: 4699 seconds
#
# Revision: 2
# Processed by: cddbd v1.5.2PL0 Copyright (c) Steve Scherf et al.
# Submitted via: ExactAudioCopyFreeDBPlugin 1.0
#
DISCID=de12590f
DTITLE=Jimmy Dludlu - Corners Of My Soul
DYEAR=2006
DGENRE=Jazz
TTITLE0=Point of no return
TTITLE1=Corners of my soul
TTITLE2=New Church Street
TTITLE3=Alchemist
TTITLE4=King Tokyo
TTITLE5=Bad Neighbourhood
TTITLE6=Long Journey
TTITLE7=Silamo
TTITLE8=Spiritual Awakening
TTITLE9=Pamodzi
TTITLE10=My Guardian Angel
TTITLE11=Message from my village
TTITLE12=I wonder why
TTITLE13=Guluva
TTITLE14=Soldiers of the mine
EXTD=YEAR: 2006
EXTT0=
EXTT1=
EXTT2=
EXTT3=
EXTT4=
EXTT5=
EXTT6=
EXTT7=
EXTT8=
EXTT9=
EXTT10=
EXTT11=
EXTT12=
EXTT13=
EXTT14=
PLAYORDER=
